# xmcd CD database file
#
# Track frame offsets:
#	150
#	32341
#	55516
#	72028
#	102872
#	135550
#	156336
#	186084
#	210889
#	236120
#	261454
#	273614
#	283980
#
# Disc length: 4079 seconds
#
# Revision: 0
# Processed by: cddbd v1.5.2PL0 Copyright (c) Steve Scherf et al.
# Submitted via: CDex 1.70beta2
#
DISCID=bb0fed0d
DTITLE=Miles Davis - The Complete Live Recordings 1956-57 CD4
DYEAR=2009
DGENRE=Jazz
TTITLE0=08-12-57 Amsterdam - Bag's Groove
TTITLE1=Woody'n'You
TTITLE2=What's New
TTITLE3=But Not For Me
TTITLE4=A Night In Tunisia
TTITLE5=Four - The Theme
TTITLE6=Walkin'
TTITLE7=Well, You Needn't
TTITLE8=Round About Midnight
TTITLE9=Lady Bird - The Theme
TTITLE10=18-12-57 Stuttgart - Yesterdays
TTITLE11=Walkin'
TTITLE12=Round About Midnight
EXTD=YEAR: 2009
EXTT0=
EXTT1=
EXTT2=
EXTT3=
EXTT4=
EXTT5=
EXTT6=
EXTT7=
EXTT8=
EXTT9=
EXTT10=
EXTT11=
EXTT12=
PLAYORDER=
